<svg width="51" height="50" viewBox="0 0 51 50" fill="none" xmlns="http://www.w3.org/2000/svg">
<g clip-path="url(#clip0)">
<path d="M36.6113 48.334H29.0623V38.2946C31.8776 38.0896 34.5123 36.8409 36.4438 34.7962C38.3367 32.8301 39.3107 30.1643 39.1276 27.4502C39.0699 26.6302 38.9322 25.5739 38.7856 24.4513C38.5178 22.7048 38.3523 20.9445 38.2888 19.1792C38.424 17.5608 38.6963 15.9567 39.1026 14.3838C39.1653 14.1349 39.1092 13.8709 38.9503 13.6688C38.7914 13.4666 38.5473 13.3483 38.2888 13.3483H24.4199L24.6136 13.2368L26.7941 11.9873C27.1947 11.7567 27.3315 11.2471 27.0996 10.8493C25.4225 7.97203 22.1849 6.35851 18.8593 6.74328C18.9465 6.45369 18.9928 6.15352 18.9969 5.85131C18.9969 4.01124 17.495 2.51933 15.6418 2.51933C15.2675 2.5234 14.896 2.59051 14.5438 2.71741L12.9846 0.3917C12.8228 0.134643 12.5328 -0.0150356 12.2277 0.00123379C11.9226 0.0175032 11.6506 0.19728 11.5179 0.470607C11.3848 0.743933 11.4123 1.06729 11.5888 1.31499L13.1492 3.64233C12.439 4.41757 12.1421 5.4824 12.3497 6.51022C12.5574 7.53804 13.2446 8.40642 14.201 8.85017C11.2833 11.4862 10.6054 15.7834 12.5721 19.1792C12.6831 19.3704 12.8662 19.5103 13.0812 19.5672C13.2962 19.6246 13.5252 19.5945 13.7177 19.4843L17.9177 17.076C18.0467 17.7467 18.1274 18.4259 18.1581 19.1084C18.1516 19.1316 18.1458 19.1552 18.1413 19.1792C18.145 19.204 18.1503 19.2284 18.1565 19.2524C18.0897 20.9945 17.9255 22.7316 17.6642 24.4554C17.5176 25.5739 17.38 26.6302 17.3218 27.4543C17.1391 30.1684 18.1131 32.8341 20.0061 34.8003C21.9371 36.845 24.5718 38.0941 27.3872 38.299V48.334H19.8357C19.3725 48.334 18.9969 48.707 18.9969 49.167C18.9969 49.627 19.3725 50 19.8357 50H36.6113C37.0745 50 37.45 49.627 37.45 49.167C37.45 48.707 37.0745 48.334 36.6113 48.334ZM22.8304 12.3355L21.064 13.3483H18.1581C17.8997 13.3483 17.656 13.4666 17.4971 13.6688C17.3382 13.8709 17.2817 14.1349 17.3447 14.3838C17.3447 14.3944 17.4443 14.7853 17.5704 15.3506L15.8576 16.3329C15.2249 14.455 16.0108 12.3945 17.7375 11.4045C19.4642 10.4145 21.6541 10.7683 22.9754 12.2513L22.8304 12.3355ZM15.6418 4.18532C16.5682 4.18532 17.3193 4.93127 17.3193 5.85131C17.3193 6.77135 16.5682 7.5173 15.6418 7.5173C14.7154 7.5173 13.9642 6.77135 13.9642 5.85131C13.9642 4.93127 14.7154 4.18532 15.6418 4.18532ZM13.6505 17.5966C12.3379 14.5009 13.5502 10.9184 16.4793 9.23901C19.4085 7.55919 23.1388 8.30718 25.1821 10.9843L24.4432 11.4081C22.6408 9.13082 19.4269 8.51543 16.9012 9.96341C14.375 11.4118 13.3048 14.4839 14.3898 17.1724L13.6505 17.5966ZM21.5132 15.0142H37.2322C36.9795 16.1137 36.7886 17.2261 36.66 18.3462H19.7869C19.7218 17.6658 19.5953 16.8987 19.4585 16.1922L21.5132 15.0142ZM18.9969 27.5681C19.0522 26.797 19.1874 25.7639 19.3323 24.6693C19.5314 23.1441 19.7427 21.4634 19.8099 20.0122H36.6416C36.7087 21.4634 36.9201 23.1441 37.1187 24.6693C37.2625 25.7639 37.3972 26.797 37.4546 27.5681C37.6008 29.821 36.7882 32.0312 35.2147 33.6606C33.4048 35.5816 30.8741 36.6721 28.2251 36.6721C25.5761 36.6721 23.0458 35.5816 21.2356 33.6606C19.6629 32.0312 18.8507 29.821 18.9969 27.5681Z" fill="url(#paint0_linear)"/>
<path d="M31.1079 24.0356C31.155 24.0669 31.2062 24.0922 31.2599 24.1105C31.3099 24.1361 31.3639 24.1528 31.4192 24.1605C31.472 24.1703 31.5253 24.1759 31.5785 24.1772C31.6318 24.1759 31.685 24.1703 31.737 24.1605C31.7931 24.1528 31.8472 24.1357 31.8976 24.1105C31.9488 24.0938 31.9971 24.0686 32.0401 24.0356C32.0848 24.0063 32.1269 23.9726 32.1658 23.9356C32.3268 23.7802 32.4173 23.5671 32.4173 23.3442C32.4173 23.1213 32.3268 22.9082 32.1658 22.7528C32.1269 22.7158 32.0848 22.682 32.0401 22.6527C31.9971 22.6198 31.9488 22.5946 31.8976 22.5779C31.8472 22.5527 31.7931 22.5356 31.737 22.5279C31.6326 22.5026 31.5237 22.5026 31.4192 22.5279C31.3639 22.5356 31.3099 22.5523 31.2599 22.5779C31.2062 22.5962 31.155 22.6214 31.1079 22.6527C31.0645 22.6836 31.0228 22.717 30.983 22.7528C30.6587 23.0814 30.6587 23.6069 30.983 23.9356L31.1079 24.0356Z" fill="url(#paint1_linear)"/>
<path d="M32.4844 29.4916C32.525 29.5937 32.5848 29.6868 32.6606 29.7665L32.7855 29.8666C32.8326 29.8979 32.8838 29.9231 32.9374 29.9414C32.9849 29.9654 33.0357 29.9825 33.0885 29.9915C33.1438 30.0008 33.1999 30.0065 33.2561 30.0081C33.5968 30.0102 33.9052 29.8072 34.0359 29.4944C34.1665 29.1821 34.0936 28.8221 33.8516 28.5837C33.6509 28.3873 33.3646 28.3031 33.0885 28.3588C33.0357 28.3678 32.9849 28.3848 32.9374 28.4088C32.8838 28.4272 32.8326 28.4524 32.7855 28.4837C32.7421 28.5146 32.7003 28.548 32.6606 28.5837C32.5831 28.6618 32.5229 28.7558 32.4844 28.8587C32.3952 29.0604 32.3952 29.2898 32.4844 29.4916Z" fill="url(#paint2_linear)"/>
<path d="M25.1116 31.0827C24.786 31.4085 24.7876 31.9348 25.1149 32.259C25.4421 32.5832 25.9721 32.5832 26.2993 32.259C26.627 31.9348 26.6282 31.4085 26.3026 31.0827C25.9663 30.7744 25.4478 30.7744 25.1116 31.0827Z" fill="url(#paint3_linear)"/>
<path d="M27.1332 26.0848C27.0967 26.0453 27.0541 26.0116 27.0074 25.9847C26.9644 25.9518 26.9161 25.9266 26.8649 25.9099C26.8145 25.8847 26.7605 25.8676 26.7043 25.8598C26.4308 25.8053 26.1478 25.8895 25.9495 26.0848C25.8754 26.1657 25.816 26.2589 25.7734 26.3597C25.7308 26.4598 25.7083 26.5676 25.7071 26.6762C25.705 26.8978 25.7927 27.111 25.9503 27.2676C26.108 27.4246 26.3226 27.5116 26.5458 27.5092C26.5991 27.5079 26.6523 27.5022 26.7043 27.4925C26.7605 27.4847 26.8145 27.4677 26.8649 27.4424C26.9161 27.4258 26.9644 27.4006 27.0074 27.3676C27.0521 27.3383 27.0942 27.3046 27.1332 27.2676C27.2921 27.111 27.3822 26.8986 27.3846 26.6762C27.3805 26.4541 27.2904 26.2426 27.1332 26.0848Z" fill="url(#paint4_linear)"/>
<path d="M23.7862 22.7528C23.45 22.4445 22.9315 22.4445 22.5952 22.7528C22.5195 22.8325 22.4597 22.9256 22.4191 23.0277C22.3761 23.1278 22.3536 23.2352 22.3519 23.3442C22.3499 23.6826 22.5543 23.9884 22.8692 24.1182C23.1838 24.2479 23.5462 24.1759 23.7862 23.9356C23.862 23.8558 23.9218 23.7627 23.9623 23.6606C24.052 23.4589 24.052 23.2295 23.9623 23.0277C23.9218 22.9256 23.862 22.8325 23.7862 22.7528Z" fill="url(#paint5_linear)"/>
</g>
<defs>
<linearGradient id="paint0_linear" x1="25.2988" y1="51.0329" x2="25.2988" y2="-1.58233" gradientUnits="userSpaceOnUse">
<stop stop-color="#E93E3A"/>
<stop offset="0.354" stop-color="#ED683C"/>
<stop offset="0.709" stop-color="#F3903F"/>
<stop offset="1" stop-color="#FDC70C"/>
</linearGradient>
<linearGradient id="paint1_linear" x1="31.5786" y1="51.0329" x2="31.5786" y2="-1.58236" gradientUnits="userSpaceOnUse">
<stop stop-color="#E93E3A"/>
<stop offset="0.354" stop-color="#ED683C"/>
<stop offset="0.709" stop-color="#F3903F"/>
<stop offset="1" stop-color="#FDC70C"/>
</linearGradient>
<linearGradient id="paint2_linear" x1="33.2562" y1="51.033" x2="33.2562" y2="-1.58249" gradientUnits="userSpaceOnUse">
<stop stop-color="#E93E3A"/>
<stop offset="0.354" stop-color="#ED683C"/>
<stop offset="0.709" stop-color="#F3903F"/>
<stop offset="1" stop-color="#FDC70C"/>
</linearGradient>
<linearGradient id="paint3_linear" x1="25.7072" y1="51.0329" x2="25.7072" y2="-1.58232" gradientUnits="userSpaceOnUse">
<stop stop-color="#E93E3A"/>
<stop offset="0.354" stop-color="#ED683C"/>
<stop offset="0.709" stop-color="#F3903F"/>
<stop offset="1" stop-color="#FDC70C"/>
</linearGradient>
<linearGradient id="paint4_linear" x1="26.546" y1="51.0328" x2="26.546" y2="-1.58225" gradientUnits="userSpaceOnUse">
<stop stop-color="#E93E3A"/>
<stop offset="0.354" stop-color="#ED683C"/>
<stop offset="0.709" stop-color="#F3903F"/>
<stop offset="1" stop-color="#FDC70C"/>
</linearGradient>
<linearGradient id="paint5_linear" x1="23.1908" y1="51.0329" x2="23.1908" y2="-1.58236" gradientUnits="userSpaceOnUse">
<stop stop-color="#E93E3A"/>
<stop offset="0.354" stop-color="#ED683C"/>
<stop offset="0.709" stop-color="#F3903F"/>
<stop offset="1" stop-color="#FDC70C"/>
</linearGradient>
<clipPath id="clip0">
<rect x="0.090332" width="50.3472" height="50" fill="white"/>
</clipPath>
</defs>
</svg>
